<svg xmlns="http://www.w3.org/2000/svg" xmlns:xlink="http://www.w3.org/1999/xlink" version="1.1" class="marks" width="688" height="440" viewBox="0 0 688 440"><rect width="688" height="440" fill="white"/><g fill="none" stroke-miterlimit="10" transform="translate(49,27)"><g class="mark-group role-frame root" role="graphics-object" aria-roledescription="group mark container"><g transform="translate(0,0)"><path class="background" aria-hidden="true" d="M0.5,0.5h600v300h-600Z" stroke="#ddd"/><g><g class="mark-group role-axis" aria-hidden="true"><g transform="translate(0.5,0.5)"><path class="background" aria-hidden="true" d="M0,0h0v0h0Z" pointer-events="none"/><g><g class="mark-rule role-axis-grid" pointer-events="none"><line transform="translate(0,300)" x2="600" y2="0" stroke="#ddd" stroke-width="1" opacity="1"/><line transform="translate(0,254)" x2="600" y2="0" stroke="#ddd" stroke-width="1" opacity="1"/><line transform="translate(0,208)" x2="600" y2="0" stroke="#ddd" stroke-width="1" opacity="1"/><line transform="translate(0,162)" x2="600" y2="0" stroke="#ddd" stroke-width="1" opacity="1"/><line transform="translate(0,115)" x2="600" y2="0" stroke="#ddd" stroke-width="1" opacity="1"/><line transform="translate(0,69)" x2="600" y2="0" stroke="#ddd" stroke-width="1" opacity="1"/><line transform="translate(0,23)" x2="600" y2="0" stroke="#ddd" stroke-width="1" opacity="1"/></g></g><path class="foreground" aria-hidden="true" d="" pointer-events="none" display="none"/></g></g><g class="mark-group role-axis" role="graphics-symbol" aria-roledescription="axis" aria-label="X-axis titled 'Category' for a discrete scale with 13 values: fragrances, furniture, laptops, mens-shoes, mens-watches, ending with womens-watches"><g transform="translate(0.5,300.5)"><path class="background" aria-hidden="true" d="M0,0h0v0h0Z" pointer-events="none"/><g><g class="mark-rule role-axis-tick" pointer-events="none"><line transform="translate(23,0)" x2="0" y2="5" stroke="#888" stroke-width="1" opacity="1"/><line transform="translate(69,0)" x2="0" y2="5" stroke="#888" stroke-width="1" opacity="1"/><line transform="translate(115,0)" x2="0" y2="5" stroke="#888" stroke-width="1" opacity="1"/><line transform="translate(161,0)" x2="0" y2="5" stroke="#888" stroke-width="1" opacity="1"/><line transform="translate(207,0)" x2="0" y2="5" stroke="#888" stroke-width="1" opacity="1"/><line transform="translate(253,0)" x2="0" y2="5" stroke="#888" stroke-width="1" opacity="1"/><line transform="translate(300,0)" x2="0" y2="5" stroke="#888" stroke-width="1" opacity="1"/><line transform="translate(346,0)" x2="0" y2="5" stroke="#888" stroke-width="1" opacity="1"/><line transform="translate(392,0)" x2="0" y2="5" stroke="#888" stroke-width="1" opacity="1"/><line transform="translate(438,0)" x2="0" y2="5" stroke="#888" stroke-width="1" opacity="1"/><line transform="translate(484,0)" x2="0" y2="5" stroke="#888" stroke-width="1" opacity="1"/><line transform="translate(530,0)" x2="0" y2="5" stroke="#888" stroke-width="1" opacity="1"/><line transform="translate(576,0)" x2="0" y2="5" stroke="#888" stroke-width="1" opacity="1"/></g><g class="mark-text role-axis-label" pointer-events="none"><text text-anchor="end" transform="translate(22.57692307692309,7) rotate(270) translate(0,3)" font-family="sans-serif" font-size="10px" fill="#000" opacity="1">fragrances</text><text text-anchor="end" transform="translate(68.73076923076924,7) rotate(270) translate(0,3)" font-family="sans-serif" font-size="10px" fill="#000" opacity="1">furniture</text><text text-anchor="end" transform="translate(114.8846153846154,7) rotate(270) translate(0,3)" font-family="sans-serif" font-size="10px" fill="#000" opacity="1">laptops</text><text text-anchor="end" transform="translate(161.03846153846155,7) rotate(270) translate(0,3)" font-family="sans-serif" font-size="10px" fill="#000" opacity="1">mens-shoes</text><text text-anchor="end" transform="translate(207.1923076923077,7) rotate(270) translate(0,3)" font-family="sans-serif" font-size="10px" fill="#000" opacity="1">mens-watches</text><text text-anchor="end" transform="translate(253.34615384615387,7) rotate(270) translate(0,3)" font-family="sans-serif" font-size="10px" fill="#000" opacity="1">mobile-accessories</text><text text-anchor="end" transform="translate(299.5,7) rotate(270) translate(0,3)" font-family="sans-serif" font-size="10px" fill="#000" opacity="1">motorcycle</text><text text-anchor="end" transform="translate(345.6538461538462,7) rotate(270) translate(0,3)" font-family="sans-serif" font-size="10px" fill="#000" opacity="1">smartphones</text><text text-anchor="end" transform="translate(391.8076923076923,7) rotate(270) translate(0,3)" font-family="sans-serif" font-size="10px" fill="#000" opacity="1">tablets</text><text text-anchor="end" transform="translate(437.96153846153845,7) rotate(270) translate(0,3)" font-family="sans-serif" font-size="10px" fill="#000" opacity="1">vehicle</text><text text-anchor="end" transform="translate(484.11538461538464,7) rotate(270) translate(0,3)" font-family="sans-serif" font-size="10px" fill="#000" opacity="1">womens-bags</text><text text-anchor="end" transform="translate(530.2692307692307,7) rotate(270) translate(0,3)" font-family="sans-serif" font-size="10px" fill="#000" opacity="1">womens-shoes</text><text text-anchor="end" transform="translate(576.4230769230769,7) rotate(270) translate(0,3)" font-family="sans-serif" font-size="10px" fill="#000" opacity="1">womens-watches</text></g><g class="mark-rule role-axis-domain" pointer-events="none"><line transform="translate(0,0)" x2="600" y2="0" stroke="#888" stroke-width="1" opacity="1"/></g><g class="mark-text role-axis-title" pointer-events="none"><text text-anchor="middle" transform="translate(300,105.5859375)" font-family="sans-serif" font-size="11px" font-weight="bold" fill="#000" opacity="1">Category</text></g></g><path class="foreground" aria-hidden="true" d="" pointer-events="none" display="none"/></g></g><g class="mark-group role-axis" role="graphics-symbol" aria-roledescription="axis" aria-label="Y-axis titled 'Total Value of Sales' for a linear scale with values from 0.0 to 650k"><g transform="translate(0.5,0.5)"><path class="background" aria-hidden="true" d="M0,0h0v0h0Z" pointer-events="none"/><g><g class="mark-rule role-axis-tick" pointer-events="none"><line transform="translate(0,300)" x2="-5" y2="0" stroke="#888" stroke-width="1" opacity="1"/><line transform="translate(0,254)" x2="-5" y2="0" stroke="#888" stroke-width="1" opacity="1"/><line transform="translate(0,208)" x2="-5" y2="0" stroke="#888" stroke-width="1" opacity="1"/><line transform="translate(0,162)" x2="-5" y2="0" stroke="#888" stroke-width="1" opacity="1"/><line transform="translate(0,115)" x2="-5" y2="0" stroke="#888" stroke-width="1" opacity="1"/><line transform="translate(0,69)" x2="-5" y2="0" stroke="#888" stroke-width="1" opacity="1"/><line transform="translate(0,23)" x2="-5" y2="0" stroke="#888" stroke-width="1" opacity="1"/></g><g class="mark-text role-axis-label" pointer-events="none"><text text-anchor="end" transform="translate(-7,303)" font-family="sans-serif" font-size="10px" fill="#000" opacity="1">0.0</text><text text-anchor="end" transform="translate(-7,256.8461538461538)" font-family="sans-serif" font-size="10px" fill="#000" opacity="1">100k</text><text text-anchor="end" transform="translate(-7,210.69230769230768)" font-family="sans-serif" font-size="10px" fill="#000" opacity="1">200k</text><text text-anchor="end" transform="translate(-7,164.53846153846152)" font-family="sans-serif" font-size="10px" fill="#000" opacity="1">300k</text><text text-anchor="end" transform="translate(-7,118.38461538461537)" font-family="sans-serif" font-size="10px" fill="#000" opacity="1">400k</text><text text-anchor="end" transform="translate(-7,72.23076923076921)" font-family="sans-serif" font-size="10px" fill="#000" opacity="1">500k</text><text text-anchor="end" transform="translate(-7,26.076923076923062)" font-family="sans-serif" font-size="10px" fill="#000" opacity="1">600k</text></g><g class="mark-rule role-axis-domain" pointer-events="none"><line transform="translate(0,300)" x2="0" y2="-300" stroke="#888" stroke-width="1" opacity="1"/></g><g class="mark-text role-axis-title" pointer-events="none"><text text-anchor="middle" transform="translate(-32.6845703125,150) rotate(-90) translate(0,-2)" font-family="sans-serif" font-size="11px" font-weight="bold" fill="#000" opacity="1">Total Value of Sales</text></g></g><path class="foreground" aria-hidden="true" d="" pointer-events="none" display="none"/></g></g><g class="mark-group role-axis" role="graphics-symbol" aria-roledescription="axis" aria-label="Y-axis titled 'Count of sold' for a linear scale with values from 0 to 60"><g transform="translate(600.5,0.5)"><path class="background" aria-hidden="true" d="M0,0h0v0h0Z" pointer-events="none"/><g><g class="mark-rule role-axis-tick" pointer-events="none"><line transform="translate(0,300)" x2="5" y2="0" stroke="#888" stroke-width="1" opacity="1"/><line transform="translate(0,250)" x2="5" y2="0" stroke="#888" stroke-width="1" opacity="1"/><line transform="translate(0,200)" x2="5" y2="0" stroke="#888" stroke-width="1" opacity="1"/><line transform="translate(0,150)" x2="5" y2="0" stroke="#888" stroke-width="1" opacity="1"/><line transform="translate(0,100)" x2="5" y2="0" stroke="#888" stroke-width="1" opacity="1"/><line transform="translate(0,50)" x2="5" y2="0" stroke="#888" stroke-width="1" opacity="1"/><line transform="translate(0,0)" x2="5" y2="0" stroke="#888" stroke-width="1" opacity="1"/></g><g class="mark-text role-axis-label" pointer-events="none"><text text-anchor="start" transform="translate(7,303)" font-family="sans-serif" font-size="10px" fill="#000" opacity="1">0</text><text text-anchor="start" transform="translate(7,253)" font-family="sans-serif" font-size="10px" fill="#000" opacity="1">10</text><text text-anchor="start" transform="translate(7,203.00000000000003)" font-family="sans-serif" font-size="10px" fill="#000" opacity="1">20</text><text text-anchor="start" transform="translate(7,153)" font-family="sans-serif" font-size="10px" fill="#000" opacity="1">30</text><text text-anchor="start" transform="translate(7,103.00000000000001)" font-family="sans-serif" font-size="10px" fill="#000" opacity="1">40</text><text text-anchor="start" transform="translate(7,52.999999999999986)" font-family="sans-serif" font-size="10px" fill="#000" opacity="1">50</text><text text-anchor="start" transform="translate(7,3)" font-family="sans-serif" font-size="10px" fill="#000" opacity="1">60</text></g><g class="mark-rule role-axis-domain" pointer-events="none"><line transform="translate(0,300)" x2="0" y2="-300" stroke="#888" stroke-width="1" opacity="1"/></g><g class="mark-text role-axis-title" pointer-events="none"><text text-anchor="middle" transform="translate(22.123046875,150) rotate(90) translate(0,-2)" font-family="sans-serif" font-size="11px" font-weight="bold" fill="#000" opacity="1">Count of sold</text></g></g><path class="foreground" aria-hidden="true" d="" pointer-events="none" display="none"/></g></g><g class="mark-rect role-mark layer_0_marks" role="graphics-object" aria-roledescription="rect mark container"><path aria-label="category: womens-shoes; total_sales: 0.0; items_sold: 0" role="graphics-symbol" aria-roledescription="bar" d="M510,300h41.53846153846154v0h-41.53846153846154Z" fill="#f58518"/><path aria-label="category: womens-bags; total_sales: 600; items_sold: 1" role="graphics-symbol" aria-roledescription="bar" d="M463.84615384615387,299.72308153846154h41.53846153846154v0.27691846153845745h-41.53846153846154Z" fill="#4c78a8"/><path aria-label="category: tablets; total_sales: 2.4k; items_sold: 4" role="graphics-symbol" aria-roledescription="bar" d="M371.53846153846155,298.89232615384617h41.53846153846154v1.1076738461538298h-41.53846153846154Z" fill="#9d755d"/><path aria-label="category: motorcycle; total_sales: 27k; items_sold: 5" role="graphics-symbol" aria-roledescription="bar" d="M279.2307692307692,287.5384846153846h41.53846153846154v12.461515384615382h-41.53846153846154Z" fill="#b279a2"/><path aria-label="category: furniture; total_sales: 13k; items_sold: 9" role="graphics-symbol" aria-roledescription="bar" d="M48.461538461538474,294.1385030769231h41.53846153846154v5.861496923076913h-41.53846153846154Z" fill="#f58518"/><path aria-label="category: fragrances; total_sales: 910; items_sold: 11" role="graphics-symbol" aria-roledescription="bar" d="M2.307692307692321,299.58005076923075h41.53846153846154v0.41994923076924806h-41.53846153846154Z" fill="#4c78a8"/><path aria-label="category: laptops; total_sales: 25k; items_sold: 16" role="graphics-symbol" aria-roledescription="bar" d="M94.61538461538463,288.50776615384615h41.53846153846154v11.492233846153852h-41.53846153846154Z" fill="#e45756"/><path aria-label="category: womens-watches; total_sales: 110k; items_sold: 16" role="graphics-symbol" aria-roledescription="bar" d="M556.1538461538462,248.58468923076921h41.53846153846154v51.415310769230786h-41.53846153846154Z" fill="#e45756"/><path aria-label="category: mens-shoes; total_sales: 1.7k; items_sold: 17" role="graphics-symbol" aria-roledescription="bar" d="M140.76923076923077,299.22469384615385h41.53846153846154v0.7753061538461452h-41.53846153846154Z" fill="#72b7b2"/><path aria-label="category: vehicle; total_sales: 630k; items_sold: 20" role="graphics-symbol" aria-roledescription="bar" d="M417.6923076923077,10.153938461538448h41.53846153846154v289.8460615384615h-41.53846153846154Z" fill="#bab0ac"/><path aria-label="category: mens-watches; total_sales: 150k; items_sold: 26" role="graphics-symbol" aria-roledescription="bar" d="M186.92307692307693,230.12319692307693h41.53846153846154v69.87680307692307h-41.53846153846154Z" fill="#54a24b"/><path aria-label="category: mobile-accessories; total_sales: 7.7k; items_sold: 32" role="graphics-symbol" aria-roledescription="bar" d="M233.0769230769231,296.45091692307693h41.53846153846154v3.5490830769230683h-41.53846153846154Z" fill="#eeca3b"/><path aria-label="category: smartphones; total_sales: 26k; items_sold: 60" role="graphics-symbol" aria-roledescription="bar" d="M325.3846153846154,287.95412307692305h41.53846153846154v12.045876923076946h-41.53846153846154Z" fill="#ff9da6"/></g><g class="mark-line role-mark layer_1_layer_0_marks" role="graphics-object" aria-roledescription="line mark container"><path aria-label="category: fragrances; items_sold: 11; total_sales: 909.89" role="graphics-symbol" aria-roledescription="line mark" d="M23.077,245L69.231,255L115.385,220L161.538,215L207.692,170L253.846,140L300,275L346.154,0L392.308,280L438.462,200L484.615,295L530.769,300L576.923,220" stroke="#4c78a8" stroke-width="2"/></g><g class="mark-symbol role-mark layer_1_layer_1_marks" role="graphics-object" aria-roledescription="symbol mark container"><path aria-label="category: womens-shoes; items_sold: 0; total_sales: 0" role="graphics-symbol" aria-roledescription="point" transform="translate(530.7692307692307,300)" d="M2.739,0A2.739,2.739,0,1,1,-2.739,0A2.739,2.739,0,1,1,2.739,0" fill="#4c78a8" stroke-width="2" opacity="1"/><path aria-label="category: womens-bags; items_sold: 1; total_sales: 599.99" role="graphics-symbol" aria-roledescription="point" transform="translate(484.61538461538464,295)" d="M2.739,0A2.739,2.739,0,1,1,-2.739,0A2.739,2.739,0,1,1,2.739,0" fill="#4c78a8" stroke-width="2" opacity="1"/><path aria-label="category: tablets; items_sold: 4; total_sales: 2399.96" role="graphics-symbol" aria-roledescription="point" transform="translate(392.3076923076923,280)" d="M2.739,0A2.739,2.739,0,1,1,-2.739,0A2.739,2.739,0,1,1,2.739,0" fill="#4c78a8" stroke-width="2" opacity="1"/><path aria-label="category: motorcycle; items_sold: 5; total_sales: 26999.95" role="graphics-symbol" aria-roledescription="point" transform="translate(300,275)" d="M2.739,0A2.739,2.739,0,1,1,-2.739,0A2.739,2.739,0,1,1,2.739,0" fill="#4c78a8" stroke-width="2" opacity="1"/><path aria-label="category: furniture; items_sold: 9; total_sales: 12699.91" role="graphics-symbol" aria-roledescription="point" transform="translate(69.23076923076924,255)" d="M2.739,0A2.739,2.739,0,1,1,-2.739,0A2.739,2.739,0,1,1,2.739,0" fill="#4c78a8" stroke-width="2" opacity="1"/><path aria-label="category: fragrances; items_sold: 11; total_sales: 909.89" role="graphics-symbol" aria-roledescription="point" transform="translate(23.07692307692309,245)" d="M2.739,0A2.739,2.739,0,1,1,-2.739,0A2.739,2.739,0,1,1,2.739,0" fill="#4c78a8" stroke-width="2" opacity="1"/><path aria-label="category: laptops; items_sold: 16; total_sales: 24899.84" role="graphics-symbol" aria-roledescription="point" transform="translate(115.3846153846154,220.00000000000003)" d="M2.739,0A2.739,2.739,0,1,1,-2.739,0A2.739,2.739,0,1,1,2.739,0" fill="#4c78a8" stroke-width="2" opacity="1"/><path aria-label="category: womens-watches; items_sold: 16; total_sales: 111399.84" role="graphics-symbol" aria-roledescription="point" transform="translate(576.9230769230769,220.00000000000003)" d="M2.739,0A2.739,2.739,0,1,1,-2.739,0A2.739,2.739,0,1,1,2.739,0" fill="#4c78a8" stroke-width="2" opacity="1"/><path aria-label="category: mens-shoes; items_sold: 17; total_sales: 1679.83" role="graphics-symbol" aria-roledescription="point" transform="translate(161.53846153846155,215)" d="M2.739,0A2.739,2.739,0,1,1,-2.739,0A2.739,2.739,0,1,1,2.739,0" fill="#4c78a8" stroke-width="2" opacity="1"/><path aria-label="category: vehicle; items_sold: 20; total_sales: 627999.8" role="graphics-symbol" aria-roledescription="point" transform="translate(438.46153846153845,200.00000000000003)" d="M2.739,0A2.739,2.739,0,1,1,-2.739,0A2.739,2.739,0,1,1,2.739,0" fill="#4c78a8" stroke-width="2" opacity="1"/><path aria-label="category: mens-watches; items_sold: 26; total_sales: 151399.74" role="graphics-symbol" aria-roledescription="point" transform="translate(207.6923076923077,170)" d="M2.739,0A2.739,2.739,0,1,1,-2.739,0A2.739,2.739,0,1,1,2.739,0" fill="#4c78a8" stroke-width="2" opacity="1"/><path aria-label="category: mobile-accessories; items_sold: 32; total_sales: 7689.68" role="graphics-symbol" aria-roledescription="point" transform="translate(253.84615384615387,140)" d="M2.739,0A2.739,2.739,0,1,1,-2.739,0A2.739,2.739,0,1,1,2.739,0" fill="#4c78a8" stroke-width="2" opacity="1"/><path aria-label="category: smartphones; items_sold: 60; total_sales: 26099.4" role="graphics-symbol" aria-roledescription="point" transform="translate(346.1538461538462,0)" d="M2.739,0A2.739,2.739,0,1,1,-2.739,0A2.739,2.739,0,1,1,2.739,0" fill="#4c78a8" stroke-width="2" opacity="1"/></g><g class="mark-group role-title"><g transform="translate(300,-22)"><path class="background" aria-hidden="true" d="M0,0h0v0h0Z" pointer-events="none"/><g><g class="mark-text role-title-text" role="graphics-symbol" aria-roledescription="title" aria-label="Title text 'Value of Sales and Number of Items Sold by Category'" pointer-events="none"><text text-anchor="middle" transform="translate(0,10)" font-family="sans-serif" font-size="13px" font-weight="bold" fill="#000" opacity="1">Value of Sales and Number of Items Sold by Category</text></g></g><path class="foreground" aria-hidden="true" d="" pointer-events="none" display="none"/></g></g></g><path class="foreground" aria-hidden="true" d="" display="none"/></g></g></g></svg>