<?xml version="1.0" encoding="UTF-8" standalone="no"?>
<!DOCTYPE svg PUBLIC "-//W3C//DTD SVG 1.1//EN"
 "http://www.w3.org/Graphics/SVG/1.1/DTD/svg11.dtd">
<!-- Generated by graphviz version 12.1.2 (0)
 -->
<!-- Title: dummyjson_etl_dag Pages: 1 -->
<svg width="944pt" height="296pt"
 viewBox="0.00 0.00 944.00 295.50" xmlns="http://www.w3.org/2000/svg" xmlns:xlink="http://www.w3.org/1999/xlink">
<g id="graph0" class="graph" transform="scale(1 1) rotate(0) translate(4 291.5)">
<title>dummyjson_etl_dag</title>
<polygon fill="white" stroke="none" points="-4,4 -4,-291.5 940,-291.5 940,4 -4,4"/>
<text text-anchor="middle" x="468" y="-270.2" font-family="Times,serif" font-size="14.00">dummyjson_etl_dag</text>
<g id="clust1" class="cluster">
<title>cluster_carts_etl</title>
<polygon fill="#6495ed" fill-opacity="0.498039" stroke="#000000" points="8,-93 8,-170 688,-170 688,-93 8,-93"/>
<text text-anchor="middle" x="348" y="-152.7" font-family="Times,serif" font-size="14.00">carts_etl</text>
</g>
<g id="clust2" class="cluster">
<title>cluster_category_summary</title>
<polygon fill="#6495ed" fill-opacity="0.498039" stroke="#000000" points="708,-130 708,-207 928,-207 928,-130 708,-130"/>
<text text-anchor="middle" x="818" y="-189.7" font-family="Times,serif" font-size="14.00">category_summary</text>
</g>
<g id="clust3" class="cluster">
<title>cluster_products_etl</title>
<polygon fill="#6495ed" fill-opacity="0.498039" stroke="#000000" points="8,-178 8,-255 688,-255 688,-178 8,-178"/>
<text text-anchor="middle" x="348" y="-237.7" font-family="Times,serif" font-size="14.00">products_etl</text>
</g>
<g id="clust4" class="cluster">
<title>cluster_user_summary</title>
<polygon fill="#6495ed" fill-opacity="0.498039" stroke="#000000" points="708,-14 708,-91 928,-91 928,-14 708,-14"/>
<text text-anchor="middle" x="818" y="-73.7" font-family="Times,serif" font-size="14.00">user_summary</text>
</g>
<g id="clust5" class="cluster">
<title>cluster_users_etl</title>
<polygon fill="#6495ed" fill-opacity="0.498039" stroke="#000000" points="8,-8 8,-85 688,-85 688,-8 8,-8"/>
<text text-anchor="middle" x="348" y="-67.7" font-family="Times,serif" font-size="14.00">users_etl</text>
</g>
<!-- carts_etl.downstream_join_id -->
<g id="node1" class="node">
<title>carts_etl.downstream_join_id</title>
<ellipse fill="CornflowerBlue" stroke="#000000" cx="673" cy="-119" rx="7" ry="7"/>
</g>
<!-- category_summary.upstream_join_id -->
<g id="node7" class="node">
<title>category_summary.upstream_join_id</title>
<ellipse fill="CornflowerBlue" stroke="#000000" cx="723" cy="-156" rx="7" ry="7"/>
</g>
<!-- carts_etl.downstream_join_id&#45;&gt;category_summary.upstream_join_id -->
<g id="edge18" class="edge">
<title>carts_etl.downstream_join_id&#45;&gt;category_summary.upstream_join_id</title>
<path fill="none" stroke="black" d="M679.14,-122.96C685.89,-128.16 698.01,-137.51 707.65,-144.94"/>
<polygon fill="black" stroke="black" points="705.5,-147.7 715.56,-151.03 709.77,-142.16 705.5,-147.7"/>
</g>
<!-- user_summary.upstream_join_id -->
<g id="node15" class="node">
<title>user_summary.upstream_join_id</title>
<ellipse fill="CornflowerBlue" stroke="#000000" cx="723" cy="-40" rx="7" ry="7"/>
</g>
<!-- carts_etl.downstream_join_id&#45;&gt;user_summary.upstream_join_id -->
<g id="edge19" class="edge">
<title>carts_etl.downstream_join_id&#45;&gt;user_summary.upstream_join_id</title>
<path fill="none" stroke="black" d="M677.45,-113.32C684.75,-101.3 701.97,-72.98 712.73,-55.26"/>
<polygon fill="black" stroke="black" points="715.59,-57.29 717.79,-46.92 709.61,-53.65 715.59,-57.29"/>
</g>
<!-- carts_etl.fetch -->
<g id="node2" class="node">
<title>carts_etl.fetch</title>
<path fill="#ffefeb" stroke="#000000" d="M58,-137C58,-137 28,-137 28,-137 22,-137 16,-131 16,-125 16,-125 16,-113 16,-113 16,-107 22,-101 28,-101 28,-101 58,-101 58,-101 64,-101 70,-107 70,-113 70,-113 70,-125 70,-125 70,-131 64,-137 58,-137"/>
<text text-anchor="middle" x="43" y="-113.95" font-family="Times,serif" font-size="14.00">fetch</text>
</g>
<!-- carts_etl.validate -->
<g id="node3" class="node">
<title>carts_etl.validate</title>
<path fill="#ffefeb" stroke="#000000" d="M168,-137C168,-137 118,-137 118,-137 112,-137 106,-131 106,-125 106,-125 106,-113 106,-113 106,-107 112,-101 118,-101 118,-101 168,-101 168,-101 174,-101 180,-107 180,-113 180,-113 180,-125 180,-125 180,-131 174,-137 168,-137"/>
<text text-anchor="middle" x="143" y="-113.95" font-family="Times,serif" font-size="14.00">validate</text>
</g>
<!-- carts_etl.fetch&#45;&gt;carts_etl.validate -->
<g id="edge1" class="edge">
<title>carts_etl.fetch&#45;&gt;carts_etl.validate</title>
<path fill="none" stroke="black" d="M70.26,-119C77.75,-119 86.14,-119 94.48,-119"/>
<polygon fill="black" stroke="black" points="94.2,-122.5 104.2,-119 94.2,-115.5 94.2,-122.5"/>
</g>
<!-- carts_etl.transform -->
<g id="node5" class="node">
<title>carts_etl.transform</title>
<path fill="#ffefeb" stroke="#000000" d="M292,-137C292,-137 228,-137 228,-137 222,-137 216,-131 216,-125 216,-125 216,-113 216,-113 216,-107 222,-101 228,-101 228,-101 292,-101 292,-101 298,-101 304,-107 304,-113 304,-113 304,-125 304,-125 304,-131 298,-137 292,-137"/>
<text text-anchor="middle" x="260" y="-113.95" font-family="Times,serif" font-size="14.00">transform</text>
</g>
<!-- carts_etl.validate&#45;&gt;carts_etl.transform -->
<g id="edge5" class="edge">
<title>carts_etl.validate&#45;&gt;carts_etl.transform</title>
<path fill="none" stroke="black" d="M180.39,-119C187.99,-119 196.17,-119 204.27,-119"/>
<polygon fill="black" stroke="black" points="204.09,-122.5 214.09,-119 204.09,-115.5 204.09,-122.5"/>
</g>
<!-- carts_etl.load_to_bigquery -->
<g id="node4" class="node">
<title>carts_etl.load_to_bigquery</title>
<path fill="#ffefeb" stroke="#000000" d="M618,-137C618,-137 504,-137 504,-137 498,-137 492,-131 492,-125 492,-125 492,-113 492,-113 492,-107 498,-101 504,-101 504,-101 618,-101 618,-101 624,-101 630,-107 630,-113 630,-113 630,-125 630,-125 630,-131 624,-137 618,-137"/>
<text text-anchor="middle" x="561" y="-113.95" font-family="Times,serif" font-size="14.00">load_to_bigquery</text>
</g>
<!-- carts_etl.load_to_bigquery&#45;&gt;carts_etl.downstream_join_id -->
<g id="edge2" class="edge">
<title>carts_etl.load_to_bigquery&#45;&gt;carts_etl.downstream_join_id</title>
<path fill="none" stroke="black" d="M630.41,-119C639.14,-119 647.39,-119 654.2,-119"/>
<polygon fill="black" stroke="black" points="654.06,-122.5 664.06,-119 654.06,-115.5 654.06,-122.5"/>
</g>
<!-- carts_etl.upload_to_gcs -->
<g id="node6" class="node">
<title>carts_etl.upload_to_gcs</title>
<path fill="#ffefeb" stroke="#000000" d="M444,-137C444,-137 352,-137 352,-137 346,-137 340,-131 340,-125 340,-125 340,-113 340,-113 340,-107 346,-101 352,-101 352,-101 444,-101 444,-101 450,-101 456,-107 456,-113 456,-113 456,-125 456,-125 456,-131 450,-137 444,-137"/>
<text text-anchor="middle" x="398" y="-113.95" font-family="Times,serif" font-size="14.00">upload_to_gcs</text>
</g>
<!-- carts_etl.transform&#45;&gt;carts_etl.upload_to_gcs -->
<g id="edge3" class="edge">
<title>carts_etl.transform&#45;&gt;carts_etl.upload_to_gcs</title>
<path fill="none" stroke="black" d="M304.41,-119C312.01,-119 320.1,-119 328.2,-119"/>
<polygon fill="black" stroke="black" points="328.09,-122.5 338.09,-119 328.09,-115.5 328.09,-122.5"/>
</g>
<!-- carts_etl.upload_to_gcs&#45;&gt;carts_etl.load_to_bigquery -->
<g id="edge4" class="edge">
<title>carts_etl.upload_to_gcs&#45;&gt;carts_etl.load_to_bigquery</title>
<path fill="none" stroke="black" d="M456.22,-119C464.02,-119 472.14,-119 480.25,-119"/>
<polygon fill="black" stroke="black" points="480.16,-122.5 490.16,-119 480.16,-115.5 480.16,-122.5"/>
</g>
<!-- category_summary.generate_summary -->
<g id="node8" class="node">
<title>category_summary.generate_summary</title>
<path fill="#ffefeb" stroke="#000000" d="M908,-174C908,-174 778,-174 778,-174 772,-174 766,-168 766,-162 766,-162 766,-150 766,-150 766,-144 772,-138 778,-138 778,-138 908,-138 908,-138 914,-138 920,-144 920,-150 920,-150 920,-162 920,-162 920,-168 914,-174 908,-174"/>
<text text-anchor="middle" x="843" y="-150.95" font-family="Times,serif" font-size="14.00">generate_summary</text>
</g>
<!-- category_summary.upstream_join_id&#45;&gt;category_summary.generate_summary -->
<g id="edge6" class="edge">
<title>category_summary.upstream_join_id&#45;&gt;category_summary.generate_summary</title>
<path fill="none" stroke="black" d="M730.35,-156C735.79,-156 744.34,-156 754.33,-156"/>
<polygon fill="black" stroke="black" points="754.16,-159.5 764.16,-156 754.16,-152.5 754.16,-159.5"/>
</g>
<!-- products_etl.downstream_join_id -->
<g id="node9" class="node">
<title>products_etl.downstream_join_id</title>
<ellipse fill="CornflowerBlue" stroke="#000000" cx="673" cy="-198" rx="7" ry="7"/>
</g>
<!-- products_etl.downstream_join_id&#45;&gt;category_summary.upstream_join_id -->
<g id="edge20" class="edge">
<title>products_etl.downstream_join_id&#45;&gt;category_summary.upstream_join_id</title>
<path fill="none" stroke="black" d="M678.78,-193.82C685.61,-187.84 698.43,-176.62 708.34,-167.95"/>
<polygon fill="black" stroke="black" points="710.59,-170.63 715.82,-161.41 705.99,-165.36 710.59,-170.63"/>
</g>
<!-- products_etl.fetch -->
<g id="node10" class="node">
<title>products_etl.fetch</title>
<path fill="#ffefeb" stroke="#000000" d="M58,-222C58,-222 28,-222 28,-222 22,-222 16,-216 16,-210 16,-210 16,-198 16,-198 16,-192 22,-186 28,-186 28,-186 58,-186 58,-186 64,-186 70,-192 70,-198 70,-198 70,-210 70,-210 70,-216 64,-222 58,-222"/>
<text text-anchor="middle" x="43" y="-198.95" font-family="Times,serif" font-size="14.00">fetch</text>
</g>
<!-- products_etl.validate -->
<g id="node11" class="node">
<title>products_etl.validate</title>
<path fill="#ffefeb" stroke="#000000" d="M168,-222C168,-222 118,-222 118,-222 112,-222 106,-216 106,-210 106,-210 106,-198 106,-198 106,-192 112,-186 118,-186 118,-186 168,-186 168,-186 174,-186 180,-192 180,-198 180,-198 180,-210 180,-210 180,-216 174,-222 168,-222"/>
<text text-anchor="middle" x="143" y="-198.95" font-family="Times,serif" font-size="14.00">validate</text>
</g>
<!-- products_etl.fetch&#45;&gt;products_etl.validate -->
<g id="edge7" class="edge">
<title>products_etl.fetch&#45;&gt;products_etl.validate</title>
<path fill="none" stroke="black" d="M70.26,-204C77.75,-204 86.14,-204 94.48,-204"/>
<polygon fill="black" stroke="black" points="94.2,-207.5 104.2,-204 94.2,-200.5 94.2,-207.5"/>
</g>
<!-- products_etl.transform -->
<g id="node13" class="node">
<title>products_etl.transform</title>
<path fill="#ffefeb" stroke="#000000" d="M292,-222C292,-222 228,-222 228,-222 222,-222 216,-216 216,-210 216,-210 216,-198 216,-198 216,-192 222,-186 228,-186 228,-186 292,-186 292,-186 298,-186 304,-192 304,-198 304,-198 304,-210 304,-210 304,-216 298,-222 292,-222"/>
<text text-anchor="middle" x="260" y="-198.95" font-family="Times,serif" font-size="14.00">transform</text>
</g>
<!-- products_etl.validate&#45;&gt;products_etl.transform -->
<g id="edge11" class="edge">
<title>products_etl.validate&#45;&gt;products_etl.transform</title>
<path fill="none" stroke="black" d="M180.39,-204C187.99,-204 196.17,-204 204.27,-204"/>
<polygon fill="black" stroke="black" points="204.09,-207.5 214.09,-204 204.09,-200.5 204.09,-207.5"/>
</g>
<!-- products_etl.load_to_bigquery -->
<g id="node12" class="node">
<title>products_etl.load_to_bigquery</title>
<path fill="#ffefeb" stroke="#000000" d="M618,-222C618,-222 504,-222 504,-222 498,-222 492,-216 492,-210 492,-210 492,-198 492,-198 492,-192 498,-186 504,-186 504,-186 618,-186 618,-186 624,-186 630,-192 630,-198 630,-198 630,-210 630,-210 630,-216 624,-222 618,-222"/>
<text text-anchor="middle" x="561" y="-198.95" font-family="Times,serif" font-size="14.00">load_to_bigquery</text>
</g>
<!-- products_etl.load_to_bigquery&#45;&gt;products_etl.downstream_join_id -->
<g id="edge8" class="edge">
<title>products_etl.load_to_bigquery&#45;&gt;products_etl.downstream_join_id</title>
<path fill="none" stroke="black" d="M630.41,-200.27C639.14,-199.79 647.39,-199.34 654.2,-198.97"/>
<polygon fill="black" stroke="black" points="654.27,-202.47 664.06,-198.43 653.89,-195.48 654.27,-202.47"/>
</g>
<!-- products_etl.upload_to_gcs -->
<g id="node14" class="node">
<title>products_etl.upload_to_gcs</title>
<path fill="#ffefeb" stroke="#000000" d="M444,-222C444,-222 352,-222 352,-222 346,-222 340,-216 340,-210 340,-210 340,-198 340,-198 340,-192 346,-186 352,-186 352,-186 444,-186 444,-186 450,-186 456,-192 456,-198 456,-198 456,-210 456,-210 456,-216 450,-222 444,-222"/>
<text text-anchor="middle" x="398" y="-198.95" font-family="Times,serif" font-size="14.00">upload_to_gcs</text>
</g>
<!-- products_etl.transform&#45;&gt;products_etl.upload_to_gcs -->
<g id="edge9" class="edge">
<title>products_etl.transform&#45;&gt;products_etl.upload_to_gcs</title>
<path fill="none" stroke="black" d="M304.41,-204C312.01,-204 320.1,-204 328.2,-204"/>
<polygon fill="black" stroke="black" points="328.09,-207.5 338.09,-204 328.09,-200.5 328.09,-207.5"/>
</g>
<!-- products_etl.upload_to_gcs&#45;&gt;products_etl.load_to_bigquery -->
<g id="edge10" class="edge">
<title>products_etl.upload_to_gcs&#45;&gt;products_etl.load_to_bigquery</title>
<path fill="none" stroke="black" d="M456.22,-204C464.02,-204 472.14,-204 480.25,-204"/>
<polygon fill="black" stroke="black" points="480.16,-207.5 490.16,-204 480.16,-200.5 480.16,-207.5"/>
</g>
<!-- user_summary.generate_summary -->
<g id="node16" class="node">
<title>user_summary.generate_summary</title>
<path fill="#ffefeb" stroke="#000000" d="M908,-58C908,-58 778,-58 778,-58 772,-58 766,-52 766,-46 766,-46 766,-34 766,-34 766,-28 772,-22 778,-22 778,-22 908,-22 908,-22 914,-22 920,-28 920,-34 920,-34 920,-46 920,-46 920,-52 914,-58 908,-58"/>
<text text-anchor="middle" x="843" y="-34.95" font-family="Times,serif" font-size="14.00">generate_summary</text>
</g>
<!-- user_summary.upstream_join_id&#45;&gt;user_summary.generate_summary -->
<g id="edge12" class="edge">
<title>user_summary.upstream_join_id&#45;&gt;user_summary.generate_summary</title>
<path fill="none" stroke="black" d="M730.35,-40C735.79,-40 744.34,-40 754.33,-40"/>
<polygon fill="black" stroke="black" points="754.16,-43.5 764.16,-40 754.16,-36.5 754.16,-43.5"/>
</g>
<!-- users_etl.downstream_join_id -->
<g id="node17" class="node">
<title>users_etl.downstream_join_id</title>
<ellipse fill="CornflowerBlue" stroke="#000000" cx="673" cy="-40" rx="7" ry="7"/>
</g>
<!-- users_etl.downstream_join_id&#45;&gt;user_summary.upstream_join_id -->
<g id="edge21" class="edge">
<title>users_etl.downstream_join_id&#45;&gt;user_summary.upstream_join_id</title>
<path fill="none" stroke="black" d="M680.28,-40C686.35,-40 695.85,-40 704.25,-40"/>
<polygon fill="black" stroke="black" points="704.06,-43.5 714.06,-40 704.06,-36.5 704.06,-43.5"/>
</g>
<!-- users_etl.fetch -->
<g id="node18" class="node">
<title>users_etl.fetch</title>
<path fill="#ffefeb" stroke="#000000" d="M58,-52C58,-52 28,-52 28,-52 22,-52 16,-46 16,-40 16,-40 16,-28 16,-28 16,-22 22,-16 28,-16 28,-16 58,-16 58,-16 64,-16 70,-22 70,-28 70,-28 70,-40 70,-40 70,-46 64,-52 58,-52"/>
<text text-anchor="middle" x="43" y="-28.95" font-family="Times,serif" font-size="14.00">fetch</text>
</g>
<!-- users_etl.validate -->
<g id="node19" class="node">
<title>users_etl.validate</title>
<path fill="#ffefeb" stroke="#000000" d="M168,-52C168,-52 118,-52 118,-52 112,-52 106,-46 106,-40 106,-40 106,-28 106,-28 106,-22 112,-16 118,-16 118,-16 168,-16 168,-16 174,-16 180,-22 180,-28 180,-28 180,-40 180,-40 180,-46 174,-52 168,-52"/>
<text text-anchor="middle" x="143" y="-28.95" font-family="Times,serif" font-size="14.00">validate</text>
</g>
<!-- users_etl.fetch&#45;&gt;users_etl.validate -->
<g id="edge13" class="edge">
<title>users_etl.fetch&#45;&gt;users_etl.validate</title>
<path fill="none" stroke="black" d="M70.26,-34C77.75,-34 86.14,-34 94.48,-34"/>
<polygon fill="black" stroke="black" points="94.2,-37.5 104.2,-34 94.2,-30.5 94.2,-37.5"/>
</g>
<!-- users_etl.transform -->
<g id="node21" class="node">
<title>users_etl.transform</title>
<path fill="#ffefeb" stroke="#000000" d="M292,-52C292,-52 228,-52 228,-52 222,-52 216,-46 216,-40 216,-40 216,-28 216,-28 216,-22 222,-16 228,-16 228,-16 292,-16 292,-16 298,-16 304,-22 304,-28 304,-28 304,-40 304,-40 304,-46 298,-52 292,-52"/>
<text text-anchor="middle" x="260" y="-28.95" font-family="Times,serif" font-size="14.00">transform</text>
</g>
<!-- users_etl.validate&#45;&gt;users_etl.transform -->
<g id="edge17" class="edge">
<title>users_etl.validate&#45;&gt;users_etl.transform</title>
<path fill="none" stroke="black" d="M180.39,-34C187.99,-34 196.17,-34 204.27,-34"/>
<polygon fill="black" stroke="black" points="204.09,-37.5 214.09,-34 204.09,-30.5 204.09,-37.5"/>
</g>
<!-- users_etl.load_to_bigquery -->
<g id="node20" class="node">
<title>users_etl.load_to_bigquery</title>
<path fill="#ffefeb" stroke="#000000" d="M618,-52C618,-52 504,-52 504,-52 498,-52 492,-46 492,-40 492,-40 492,-28 492,-28 492,-22 498,-16 504,-16 504,-16 618,-16 618,-16 624,-16 630,-22 630,-28 630,-28 630,-40 630,-40 630,-46 624,-52 618,-52"/>
<text text-anchor="middle" x="561" y="-28.95" font-family="Times,serif" font-size="14.00">load_to_bigquery</text>
</g>
<!-- users_etl.load_to_bigquery&#45;&gt;users_etl.downstream_join_id -->
<g id="edge14" class="edge">
<title>users_etl.load_to_bigquery&#45;&gt;users_etl.downstream_join_id</title>
<path fill="none" stroke="black" d="M630.41,-37.73C639.14,-38.21 647.39,-38.66 654.2,-39.03"/>
<polygon fill="black" stroke="black" points="653.89,-42.52 664.06,-39.57 654.27,-35.53 653.89,-42.52"/>
</g>
<!-- users_etl.upload_to_gcs -->
<g id="node22" class="node">
<title>users_etl.upload_to_gcs</title>
<path fill="#ffefeb" stroke="#000000" d="M444,-52C444,-52 352,-52 352,-52 346,-52 340,-46 340,-40 340,-40 340,-28 340,-28 340,-22 346,-16 352,-16 352,-16 444,-16 444,-16 450,-16 456,-22 456,-28 456,-28 456,-40 456,-40 456,-46 450,-52 444,-52"/>
<text text-anchor="middle" x="398" y="-28.95" font-family="Times,serif" font-size="14.00">upload_to_gcs</text>
</g>
<!-- users_etl.transform&#45;&gt;users_etl.upload_to_gcs -->
<g id="edge15" class="edge">
<title>users_etl.transform&#45;&gt;users_etl.upload_to_gcs</title>
<path fill="none" stroke="black" d="M304.41,-34C312.01,-34 320.1,-34 328.2,-34"/>
<polygon fill="black" stroke="black" points="328.09,-37.5 338.09,-34 328.09,-30.5 328.09,-37.5"/>
</g>
<!-- users_etl.upload_to_gcs&#45;&gt;users_etl.load_to_bigquery -->
<g id="edge16" class="edge">
<title>users_etl.upload_to_gcs&#45;&gt;users_etl.load_to_bigquery</title>
<path fill="none" stroke="black" d="M456.22,-34C464.02,-34 472.14,-34 480.25,-34"/>
<polygon fill="black" stroke="black" points="480.16,-37.5 490.16,-34 480.16,-30.5 480.16,-37.5"/>
</g>
</g>
</svg>
