<svg xmlns="http://www.w3.org/2000/svg" xmlns:xlink="http://www.w3.org/1999/xlink" version="1.1" class="marks" width="724" height="367" viewBox="0 0 724 367"><rect width="724" height="367" fill="white"/><g fill="none" stroke-miterlimit="10" transform="translate(39,30)"><g class="mark-group role-frame root" role="graphics-object" aria-roledescription="group mark container"><g transform="translate(0,0)"><path class="background" aria-hidden="true" d="M0.5,0.5h600v300h-600Z" stroke="#ddd"/><g><g class="mark-group role-axis" aria-hidden="true"><g transform="translate(0.5,300.5)"><path class="background" aria-hidden="true" d="M0,0h0v0h0Z" pointer-events="none"/><g><g class="mark-rule role-axis-grid" pointer-events="none"><line transform="translate(0,-300)" x2="0" y2="300" stroke="#ddd" stroke-width="1" opacity="1"/><line transform="translate(45,-300)" x2="0" y2="300" stroke="#ddd" stroke-width="1" opacity="1"/><line transform="translate(72,-300)" x2="0" y2="300" stroke="#ddd" stroke-width="1" opacity="1"/><line transform="translate(90,-300)" x2="0" y2="300" stroke="#ddd" stroke-width="1" opacity="1"/><line transform="translate(105,-300)" x2="0" y2="300" stroke="#ddd" stroke-width="1" opacity="1"/><line transform="translate(117,-300)" x2="0" y2="300" stroke="#ddd" stroke-width="1" opacity="1"/><line transform="translate(127,-300)" x2="0" y2="300" stroke="#ddd" stroke-width="1" opacity="1"/><line transform="translate(135,-300)" x2="0" y2="300" stroke="#ddd" stroke-width="1" opacity="1"/><line transform="translate(143,-300)" x2="0" y2="300" stroke="#ddd" stroke-width="1" opacity="1"/><line transform="translate(150,-300)" x2="0" y2="300" stroke="#ddd" stroke-width="1" opacity="1"/><line transform="translate(195,-300)" x2="0" y2="300" stroke="#ddd" stroke-width="1" opacity="1"/><line transform="translate(222,-300)" x2="0" y2="300" stroke="#ddd" stroke-width="1" opacity="1"/><line transform="translate(240,-300)" x2="0" y2="300" stroke="#ddd" stroke-width="1" opacity="1"/><line transform="translate(255,-300)" x2="0" y2="300" stroke="#ddd" stroke-width="1" opacity="1"/><line transform="translate(267,-300)" x2="0" y2="300" stroke="#ddd" stroke-width="1" opacity="1"/><line transform="translate(277,-300)" x2="0" y2="300" stroke="#ddd" stroke-width="1" opacity="1"/><line transform="translate(285,-300)" x2="0" y2="300" stroke="#ddd" stroke-width="1" opacity="1"/><line transform="translate(293,-300)" x2="0" y2="300" stroke="#ddd" stroke-width="1" opacity="1"/><line transform="translate(300,-300)" x2="0" y2="300" stroke="#ddd" stroke-width="1" opacity="1"/><line transform="translate(345,-300)" x2="0" y2="300" stroke="#ddd" stroke-width="1" opacity="1"/><line transform="translate(372,-300)" x2="0" y2="300" stroke="#ddd" stroke-width="1" opacity="1"/><line transform="translate(390,-300)" x2="0" y2="300" stroke="#ddd" stroke-width="1" opacity="1"/><line transform="translate(405,-300)" x2="0" y2="300" stroke="#ddd" stroke-width="1" opacity="1"/><line transform="translate(417,-300)" x2="0" y2="300" stroke="#ddd" stroke-width="1" opacity="1"/><line transform="translate(427,-300)" x2="0" y2="300" stroke="#ddd" stroke-width="1" opacity="1"/><line transform="translate(435,-300)" x2="0" y2="300" stroke="#ddd" stroke-width="1" opacity="1"/><line transform="translate(443,-300)" x2="0" y2="300" stroke="#ddd" stroke-width="1" opacity="1"/><line transform="translate(450,-300)" x2="0" y2="300" stroke="#ddd" stroke-width="1" opacity="1"/><line transform="translate(495,-300)" x2="0" y2="300" stroke="#ddd" stroke-width="1" opacity="1"/><line transform="translate(522,-300)" x2="0" y2="300" stroke="#ddd" stroke-width="1" opacity="1"/><line transform="translate(540,-300)" x2="0" y2="300" stroke="#ddd" stroke-width="1" opacity="1"/><line transform="translate(555,-300)" x2="0" y2="300" stroke="#ddd" stroke-width="1" opacity="1"/><line transform="translate(567,-300)" x2="0" y2="300" stroke="#ddd" stroke-width="1" opacity="1"/><line transform="translate(577,-300)" x2="0" y2="300" stroke="#ddd" stroke-width="1" opacity="1"/><line transform="translate(585,-300)" x2="0" y2="300" stroke="#ddd" stroke-width="1" opacity="1"/><line transform="translate(593,-300)" x2="0" y2="300" stroke="#ddd" stroke-width="1" opacity="1"/><line transform="translate(600,-300)" x2="0" y2="300" stroke="#ddd" stroke-width="1" opacity="1"/></g></g><path class="foreground" aria-hidden="true" d="" pointer-events="none" display="none"/></g></g><g class="mark-group role-axis" aria-hidden="true"><g transform="translate(0.5,0.5)"><path class="background" aria-hidden="true" d="M0,0h0v0h0Z" pointer-events="none"/><g><g class="mark-rule role-axis-grid" pointer-events="none"><line transform="translate(0,300)" x2="600" y2="0" stroke="#ddd" stroke-width="1" opacity="1"/><line transform="translate(0,257)" x2="600" y2="0" stroke="#ddd" stroke-width="1" opacity="1"/><line transform="translate(0,214)" x2="600" y2="0" stroke="#ddd" stroke-width="1" opacity="1"/><line transform="translate(0,171)" x2="600" y2="0" stroke="#ddd" stroke-width="1" opacity="1"/><line transform="translate(0,129)" x2="600" y2="0" stroke="#ddd" stroke-width="1" opacity="1"/><line transform="translate(0,86)" x2="600" y2="0" stroke="#ddd" stroke-width="1" opacity="1"/><line transform="translate(0,43)" x2="600" y2="0" stroke="#ddd" stroke-width="1" opacity="1"/><line transform="translate(0,0)" x2="600" y2="0" stroke="#ddd" stroke-width="1" opacity="1"/></g></g><path class="foreground" aria-hidden="true" d="" pointer-events="none" display="none"/></g></g><g class="mark-group role-axis" role="graphics-symbol" aria-roledescription="axis" aria-label="X-axis titled 'Total Amount Spent' for a log scale with values from 100 to 1.0M"><g transform="translate(0.5,300.5)"><path class="background" aria-hidden="true" d="M0,0h0v0h0Z" pointer-events="none"/><g><g class="mark-rule role-axis-tick" pointer-events="none"><line transform="translate(0,0)" x2="0" y2="5" stroke="#888" stroke-width="1" opacity="1"/><line transform="translate(45,0)" x2="0" y2="5" stroke="#888" stroke-width="1" opacity="1"/><line transform="translate(72,0)" x2="0" y2="5" stroke="#888" stroke-width="1" opacity="1"/><line transform="translate(90,0)" x2="0" y2="5" stroke="#888" stroke-width="1" opacity="1"/><line transform="translate(105,0)" x2="0" y2="5" stroke="#888" stroke-width="1" opacity="1"/><line transform="translate(117,0)" x2="0" y2="5" stroke="#888" stroke-width="1" opacity="1"/><line transform="translate(127,0)" x2="0" y2="5" stroke="#888" stroke-width="1" opacity="1"/><line transform="translate(135,0)" x2="0" y2="5" stroke="#888" stroke-width="1" opacity="1"/><line transform="translate(143,0)" x2="0" y2="5" stroke="#888" stroke-width="1" opacity="1"/><line transform="translate(150,0)" x2="0" y2="5" stroke="#888" stroke-width="1" opacity="1"/><line transform="translate(195,0)" x2="0" y2="5" stroke="#888" stroke-width="1" opacity="1"/><line transform="translate(222,0)" x2="0" y2="5" stroke="#888" stroke-width="1" opacity="1"/><line transform="translate(240,0)" x2="0" y2="5" stroke="#888" stroke-width="1" opacity="1"/><line transform="translate(255,0)" x2="0" y2="5" stroke="#888" stroke-width="1" opacity="1"/><line transform="translate(267,0)" x2="0" y2="5" stroke="#888" stroke-width="1" opacity="1"/><line transform="translate(277,0)" x2="0" y2="5" stroke="#888" stroke-width="1" opacity="1"/><line transform="translate(285,0)" x2="0" y2="5" stroke="#888" stroke-width="1" opacity="1"/><line transform="translate(293,0)" x2="0" y2="5" stroke="#888" stroke-width="1" opacity="1"/><line transform="translate(300,0)" x2="0" y2="5" stroke="#888" stroke-width="1" opacity="1"/><line transform="translate(345,0)" x2="0" y2="5" stroke="#888" stroke-width="1" opacity="1"/><line transform="translate(372,0)" x2="0" y2="5" stroke="#888" stroke-width="1" opacity="1"/><line transform="translate(390,0)" x2="0" y2="5" stroke="#888" stroke-width="1" opacity="1"/><line transform="translate(405,0)" x2="0" y2="5" stroke="#888" stroke-width="1" opacity="1"/><line transform="translate(417,0)" x2="0" y2="5" stroke="#888" stroke-width="1" opacity="1"/><line transform="translate(427,0)" x2="0" y2="5" stroke="#888" stroke-width="1" opacity="1"/><line transform="translate(435,0)" x2="0" y2="5" stroke="#888" stroke-width="1" opacity="1"/><line transform="translate(443,0)" x2="0" y2="5" stroke="#888" stroke-width="1" opacity="1"/><line transform="translate(450,0)" x2="0" y2="5" stroke="#888" stroke-width="1" opacity="1"/><line transform="translate(495,0)" x2="0" y2="5" stroke="#888" stroke-width="1" opacity="1"/><line transform="translate(522,0)" x2="0" y2="5" stroke="#888" stroke-width="1" opacity="1"/><line transform="translate(540,0)" x2="0" y2="5" stroke="#888" stroke-width="1" opacity="1"/><line transform="translate(555,0)" x2="0" y2="5" stroke="#888" stroke-width="1" opacity="1"/><line transform="translate(567,0)" x2="0" y2="5" stroke="#888" stroke-width="1" opacity="1"/><line transform="translate(577,0)" x2="0" y2="5" stroke="#888" stroke-width="1" opacity="1"/><line transform="translate(585,0)" x2="0" y2="5" stroke="#888" stroke-width="1" opacity="1"/><line transform="translate(593,0)" x2="0" y2="5" stroke="#888" stroke-width="1" opacity="1"/><line transform="translate(600,0)" x2="0" y2="5" stroke="#888" stroke-width="1" opacity="1"/></g><g class="mark-text role-axis-label" pointer-events="none"><text text-anchor="start" transform="translate(0,15)" font-family="sans-serif" font-size="10px" fill="#000" opacity="1">100</text><text text-anchor="middle" transform="translate(45.15449934959713,15)" font-family="sans-serif" font-size="10px" fill="#000" opacity="1">200</text><text text-anchor="middle" transform="translate(71.56818820794933,15)" font-family="sans-serif" font-size="10px" fill="#000" opacity="1"/><text text-anchor="middle" transform="translate(90.30899869919432,15)" font-family="sans-serif" font-size="10px" fill="#000" opacity="1"/><text text-anchor="middle" transform="translate(104.84550065040278,15)" font-family="sans-serif" font-size="10px" fill="#000" opacity="1"/><text text-anchor="middle" transform="translate(116.72268755754652,15)" font-family="sans-serif" font-size="10px" fill="#000" opacity="1"/><text text-anchor="middle" transform="translate(126.76470600213848,15)" font-family="sans-serif" font-size="10px" fill="#000" opacity="1"/><text text-anchor="middle" transform="translate(135.4634980487915,15)" font-family="sans-serif" font-size="10px" fill="#000" opacity="1"/><text text-anchor="middle" transform="translate(143.13637641589872,15)" font-family="sans-serif" font-size="10px" fill="#000" opacity="1"/><text text-anchor="middle" transform="translate(149.99999999999997,15)" font-family="sans-serif" font-size="10px" fill="#000" opacity="1">1.0k</text><text text-anchor="middle" transform="translate(195.15449934959716,15)" font-family="sans-serif" font-size="10px" fill="#000" opacity="1">2.0k</text><text text-anchor="middle" transform="translate(221.56818820794928,15)" font-family="sans-serif" font-size="10px" fill="#000" opacity="1"/><text text-anchor="middle" transform="translate(240.30899869919435,15)" font-family="sans-serif" font-size="10px" fill="#000" opacity="1"/><text text-anchor="middle" transform="translate(254.84550065040287,15)" font-family="sans-serif" font-size="10px" fill="#000" opacity="1"/><text text-anchor="middle" transform="translate(266.7226875575465,15)" font-family="sans-serif" font-size="10px" fill="#000" opacity="1"/><text text-anchor="middle" transform="translate(276.7647060021385,15)" font-family="sans-serif" font-size="10px" fill="#000" opacity="1"/><text text-anchor="middle" transform="translate(285.4634980487915,15)" font-family="sans-serif" font-size="10px" fill="#000" opacity="1"/><text text-anchor="middle" transform="translate(293.1363764158987,15)" font-family="sans-serif" font-size="10px" fill="#000" opacity="1"/><text text-anchor="middle" transform="translate(300.00000000000006,15)" font-family="sans-serif" font-size="10px" fill="#000" opacity="1">10k</text><text text-anchor="middle" transform="translate(345.15449934959713,15)" font-family="sans-serif" font-size="10px" fill="#000" opacity="1">20k</text><text text-anchor="middle" transform="translate(371.5681882079494,15)" font-family="sans-serif" font-size="10px" fill="#000" opacity="1"/><text text-anchor="middle" transform="translate(390.3089986991943,15)" font-family="sans-serif" font-size="10px" fill="#000" opacity="1"/><text text-anchor="middle" transform="translate(404.8455006504028,15)" font-family="sans-serif" font-size="10px" fill="#000" opacity="1"/><text text-anchor="middle" transform="translate(416.7226875575466,15)" font-family="sans-serif" font-size="10px" fill="#000" opacity="1"/><text text-anchor="middle" transform="translate(426.7647060021385,15)" font-family="sans-serif" font-size="10px" fill="#000" opacity="1"/><text text-anchor="middle" transform="translate(435.4634980487915,15)" font-family="sans-serif" font-size="10px" fill="#000" opacity="1"/><text text-anchor="middle" transform="translate(443.1363764158987,15)" font-family="sans-serif" font-size="10px" fill="#000" opacity="1"/><text text-anchor="middle" transform="translate(450,15)" font-family="sans-serif" font-size="10px" fill="#000" opacity="1">100k</text><text text-anchor="middle" transform="translate(495.1544993495972,15)" font-family="sans-serif" font-size="10px" fill="#000" opacity="1">200k</text><text text-anchor="middle" transform="translate(521.5681882079493,15)" font-family="sans-serif" font-size="10px" fill="#000" opacity="1"/><text text-anchor="middle" transform="translate(540.3089986991944,15)" font-family="sans-serif" font-size="10px" fill="#000" opacity="1"/><text text-anchor="middle" transform="translate(554.8455006504028,15)" font-family="sans-serif" font-size="10px" fill="#000" opacity="1"/><text text-anchor="middle" transform="translate(566.7226875575466,15)" font-family="sans-serif" font-size="10px" fill="#000" opacity="1"/><text text-anchor="middle" transform="translate(576.7647060021386,15)" font-family="sans-serif" font-size="10px" fill="#000" opacity="1"/><text text-anchor="middle" transform="translate(585.4634980487915,15)" font-family="sans-serif" font-size="10px" fill="#000" opacity="1"/><text text-anchor="middle" transform="translate(593.1363764158989,15)" font-family="sans-serif" font-size="10px" fill="#000" opacity="1"/><text text-anchor="end" transform="translate(600,15)" font-family="sans-serif" font-size="10px" fill="#000" opacity="1">1.0M</text></g><g class="mark-rule role-axis-domain" pointer-events="none"><line transform="translate(0,0)" x2="600" y2="0" stroke="#888" stroke-width="1" opacity="1"/></g><g class="mark-text role-axis-title" pointer-events="none"><text text-anchor="middle" transform="translate(300,30)" font-family="sans-serif" font-size="11px" font-weight="bold" fill="#000" opacity="1">Total Amount Spent</text></g></g><path class="foreground" aria-hidden="true" d="" pointer-events="none" display="none"/></g></g><g class="mark-group role-axis" role="graphics-symbol" aria-roledescription="axis" aria-label="Y-axis titled 'Total Items Bought' for a linear scale with values from 0 to 35"><g transform="translate(0.5,0.5)"><path class="background" aria-hidden="true" d="M0,0h0v0h0Z" pointer-events="none"/><g><g class="mark-rule role-axis-tick" pointer-events="none"><line transform="translate(0,300)" x2="-5" y2="0" stroke="#888" stroke-width="1" opacity="1"/><line transform="translate(0,257)" x2="-5" y2="0" stroke="#888" stroke-width="1" opacity="1"/><line transform="translate(0,214)" x2="-5" y2="0" stroke="#888" stroke-width="1" opacity="1"/><line transform="translate(0,171)" x2="-5" y2="0" stroke="#888" stroke-width="1" opacity="1"/><line transform="translate(0,129)" x2="-5" y2="0" stroke="#888" stroke-width="1" opacity="1"/><line transform="translate(0,86)" x2="-5" y2="0" stroke="#888" stroke-width="1" opacity="1"/><line transform="translate(0,43)" x2="-5" y2="0" stroke="#888" stroke-width="1" opacity="1"/><line transform="translate(0,0)" x2="-5" y2="0" stroke="#888" stroke-width="1" opacity="1"/></g><g class="mark-text role-axis-label" pointer-events="none"><text text-anchor="end" transform="translate(-7,303)" font-family="sans-serif" font-size="10px" fill="#000" opacity="1">0</text><text text-anchor="end" transform="translate(-7,260.14285714285717)" font-family="sans-serif" font-size="10px" fill="#000" opacity="1">5</text><text text-anchor="end" transform="translate(-7,217.28571428571428)" font-family="sans-serif" font-size="10px" fill="#000" opacity="1">10</text><text text-anchor="end" transform="translate(-7,174.42857142857142)" font-family="sans-serif" font-size="10px" fill="#000" opacity="1">15</text><text text-anchor="end" transform="translate(-7,131.57142857142858)" font-family="sans-serif" font-size="10px" fill="#000" opacity="1">20</text><text text-anchor="end" transform="translate(-7,88.71428571428571)" font-family="sans-serif" font-size="10px" fill="#000" opacity="1">25</text><text text-anchor="end" transform="translate(-7,45.85714285714287)" font-family="sans-serif" font-size="10px" fill="#000" opacity="1">30</text><text text-anchor="end" transform="translate(-7,3)" font-family="sans-serif" font-size="10px" fill="#000" opacity="1">35</text></g><g class="mark-rule role-axis-domain" pointer-events="none"><line transform="translate(0,300)" x2="0" y2="-300" stroke="#888" stroke-width="1" opacity="1"/></g><g class="mark-text role-axis-title" pointer-events="none"><text text-anchor="middle" transform="translate(-22.123046875,150) rotate(-90) translate(0,-2)" font-family="sans-serif" font-size="11px" font-weight="bold" fill="#000" opacity="1">Total Items Bought</text></g></g><path class="foreground" aria-hidden="true" d="" pointer-events="none" display="none"/></g></g><g class="mark-symbol role-mark layer_0_marks" role="graphics-object" aria-roledescription="symbol mark container"><path aria-label="total_spent: 1.6k; total_items: 10; binned_age: 20; first_name: Olivia; age: 22; city: Fort Worth" role="graphics-symbol" aria-roledescription="circle" transform="translate(180.61596161119542,214.28571428571428)" d="M5.477,0A5.477,5.477,0,1,1,-5.477,0A5.477,5.477,0,1,1,5.477,0" fill="rgb(219, 211, 208)" stroke-width="2" opacity="0.7"/><path aria-label="total_spent: 12k; total_items: 19; binned_age: 25; first_name: Liam; age: 29; city: Denver" role="graphics-symbol" aria-roledescription="circle" transform="translate(309.6682491123349,137.14285714285717)" d="M5.477,0A5.477,5.477,0,1,1,-5.477,0A5.477,5.477,0,1,1,5.477,0" fill="rgb(200, 189, 185)" stroke-width="2" opacity="0.7"/><path aria-label="total_spent: 2.8k; total_items: 21; binned_age: 30; first_name: William; age: 32; city: San Jose" role="graphics-symbol" aria-roledescription="circle" transform="translate(217.0727740636528,120)" d="M5.477,0A5.477,5.477,0,1,1,-5.477,0A5.477,5.477,0,1,1,5.477,0" fill="rgb(196, 162, 147)" stroke-width="2" opacity="0.7"/><path aria-label="total_spent: 270; total_items: 13; binned_age: 30; first_name: Jackson; age: 34; city: New York" role="graphics-symbol" aria-roledescription="circle" transform="translate(64.6973259803287,188.57142857142856)" d="M5.477,0A5.477,5.477,0,1,1,-5.477,0A5.477,5.477,0,1,1,5.477,0" fill="rgb(196, 162, 147)" stroke-width="2" opacity="0.7"/><path aria-label="total_spent: 16k; total_items: 28; binned_age: 35; first_name: Chloe; age: 39; city: Dallas" role="graphics-symbol" aria-roledescription="circle" transform="translate(330.12712346153506,59.999999999999986)" d="M5.477,0A5.477,5.477,0,1,1,-5.477,0A5.477,5.477,0,1,1,5.477,0" fill="rgb(220, 123, 67)" stroke-width="2" opacity="0.7"/><path aria-label="total_spent: 270k; total_items: 33; binned_age: 30; first_name: Carter; age: 31; city: Denver" role="graphics-symbol" aria-roledescription="circle" transform="translate(515.5792774021542,17.14285714285715)" d="M5.477,0A5.477,5.477,0,1,1,-5.477,0A5.477,5.477,0,1,1,5.477,0" fill="rgb(196, 162, 147)" stroke-width="2" opacity="0.7"/><path aria-label="total_spent: 600; total_items: 13; binned_age: 30; first_name: Evan; age: 32; city: San Antonio" role="graphics-symbol" aria-roledescription="circle" transform="translate(116.72160181229387,188.57142857142856)" d="M5.477,0A5.477,5.477,0,1,1,-5.477,0A5.477,5.477,0,1,1,5.477,0" fill="rgb(196, 162, 147)" stroke-width="2" opacity="0.7"/><path aria-label="total_spent: 240; total_items: 4; binned_age: 25; first_name: Avery; age: 28; city: San Diego" role="graphics-symbol" aria-roledescription="circle" transform="translate(57.02625734950946,265.7142857142857)" d="M5.477,0A5.477,5.477,0,1,1,-5.477,0A5.477,5.477,0,1,1,5.477,0" fill="rgb(200, 189, 185)" stroke-width="2" opacity="0.7"/><path aria-label="total_spent: 700; total_items: 13; binned_age: 30; first_name: Ethan; age: 33; city: Dallas" role="graphics-symbol" aria-roledescription="circle" transform="translate(126.76284471348328,188.57142857142856)" d="M5.477,0A5.477,5.477,0,1,1,-5.477,0A5.477,5.477,0,1,1,5.477,0" fill="rgb(196, 162, 147)" stroke-width="2" opacity="0.7"/><path aria-label="total_spent: 450; total_items: 8; binned_age: 25; first_name: Aria; age: 27; city: San Diego" role="graphics-symbol" aria-roledescription="circle" transform="translate(97.97753397671121,231.42857142857144)" d="M5.477,0A5.477,5.477,0,1,1,-5.477,0A5.477,5.477,0,1,1,5.477,0" fill="rgb(200, 189, 185)" stroke-width="2" opacity="0.7"/><path aria-label="total_spent: 12k; total_items: 7; binned_age: 30; first_name: Gabriel; age: 34; city: San Jose" role="graphics-symbol" aria-roledescription="circle" transform="translate(311.87702404650946,240)" d="M5.477,0A5.477,5.477,0,1,1,-5.477,0A5.477,5.477,0,1,1,5.477,0" fill="rgb(196, 162, 147)" stroke-width="2" opacity="0.7"/><path aria-label="total_spent: 44k; total_items: 16; binned_age: 25; first_name: Austin; age: 29; city: Los Angeles" role="graphics-symbol" aria-roledescription="circle" transform="translate(396.8721646681928,162.8571428571429)" d="M5.477,0A5.477,5.477,0,1,1,-5.477,0A5.477,5.477,0,1,1,5.477,0" fill="rgb(200, 189, 185)" stroke-width="2" opacity="0.7"/><path aria-label="total_spent: 150k; total_items: 34; binned_age: 25; first_name: Nora; age: 26; city: San Jose" role="graphics-symbol" aria-roledescription="circle" transform="translate(477.447680932226,8.571428571428575)" d="M5.477,0A5.477,5.477,0,1,1,-5.477,0A5.477,5.477,0,1,1,5.477,0" fill="rgb(200, 189, 185)" stroke-width="2" opacity="0.7"/><path aria-label="total_spent: 3.2k; total_items: 22; binned_age: 25; first_name: Scarlett; age: 27; city: New York" role="graphics-symbol" aria-roledescription="circle" transform="translate(226.5795398085854,111.42857142857143)" d="M5.477,0A5.477,5.477,0,1,1,-5.477,0A5.477,5.477,0,1,1,5.477,0" fill="rgb(200, 189, 185)" stroke-width="2" opacity="0.7"/><path aria-label="total_spent: 3.6k; total_items: 3; binned_age: 30; first_name: Julian; age: 34; city: Fort Worth" role="graphics-symbol" aria-roledescription="circle" transform="translate(233.44501320201957,274.2857142857143)" d="M5.477,0A5.477,5.477,0,1,1,-5.477,0A5.477,5.477,0,1,1,5.477,0" fill="rgb(196, 162, 147)" stroke-width="2" opacity="0.7"/><path aria-label="total_spent: 330; total_items: 18; binned_age: 25; first_name: Ruby; age: 28; city: Dallas" role="graphics-symbol" aria-roledescription="circle" transform="translate(77.77116851499551,145.71428571428572)" d="M5.477,0A5.477,5.477,0,1,1,-5.477,0A5.477,5.477,0,1,1,5.477,0" fill="rgb(200, 189, 185)" stroke-width="2" opacity="0.7"/><path aria-label="total_spent: 17k; total_items: 13; binned_age: 40; first_name: James; age: 45; city: Washington" role="graphics-symbol" aria-roledescription="circle" transform="translate(333.60187167660087,188.57142857142856)" d="M5.477,0A5.477,5.477,0,1,1,-5.477,0A5.477,5.477,0,1,1,5.477,0" fill="rgb(224, 80, 21)" stroke-width="2" opacity="0.7"/><path aria-label="total_spent: 400; total_items: 2; binned_age: 30; first_name: Benjamin; age: 30; city: Philadelphia" role="graphics-symbol" aria-roledescription="circle" transform="translate(90.30737007452933,282.85714285714283)" d="M5.477,0A5.477,5.477,0,1,1,-5.477,0A5.477,5.477,0,1,1,5.477,0" fill="rgb(196, 162, 147)" stroke-width="2" opacity="0.7"/><path aria-label="total_spent: 7.3k; total_items: 20; binned_age: 20; first_name: Nora; age: 24; city: Charlotte" role="graphics-symbol" aria-roledescription="circle" transform="translate(279.2294447701958,128.57142857142858)" d="M5.477,0A5.477,5.477,0,1,1,-5.477,0A5.477,5.477,0,1,1,5.477,0" fill="rgb(219, 211, 208)" stroke-width="2" opacity="0.7"/><path aria-label="total_spent: 4.5k; total_items: 20; binned_age: 25; first_name: Aria; age: 27; city: Phoenix" role="graphics-symbol" aria-roledescription="circle" transform="translate(247.98086370462875,128.57142857142858)" d="M5.477,0A5.477,5.477,0,1,1,-5.477,0A5.477,5.477,0,1,1,5.477,0" fill="rgb(200, 189, 185)" stroke-width="2" opacity="0.7"/><path aria-label="total_spent: 4.7k; total_items: 13; binned_age: 30; first_name: Grayson; age: 30; city: San Francisco" role="graphics-symbol" aria-roledescription="circle" transform="translate(251.36551432470606,188.57142857142856)" d="M5.477,0A5.477,5.477,0,1,1,-5.477,0A5.477,5.477,0,1,1,5.477,0" fill="rgb(196, 162, 147)" stroke-width="2" opacity="0.7"/><path aria-label="total_spent: 7.5k; total_items: 20; binned_age: 40; first_name: Henry; age: 44; city: Philadelphia" role="graphics-symbol" aria-roledescription="circle" transform="translate(281.2587552128254,128.57142857142858)" d="M5.477,0A5.477,5.477,0,1,1,-5.477,0A5.477,5.477,0,1,1,5.477,0" fill="rgb(224, 80, 21)" stroke-width="2" opacity="0.7"/><path aria-label="total_spent: 35k; total_items: 14; binned_age: 35; first_name: Stella; age: 39; city: San Diego" role="graphics-symbol" aria-roledescription="circle" transform="translate(381.5169092588057,180)" d="M5.477,0A5.477,5.477,0,1,1,-5.477,0A5.477,5.477,0,1,1,5.477,0" fill="rgb(220, 123, 67)" stroke-width="2" opacity="0.7"/><path aria-label="total_spent: 29k; total_items: 8; binned_age: 25; first_name: Claire; age: 29; city: San Jose" role="graphics-symbol" aria-roledescription="circle" transform="translate(370.4731257343228,231.42857142857144)" d="M5.477,0A5.477,5.477,0,1,1,-5.477,0A5.477,5.477,0,1,1,5.477,0" fill="rgb(200, 189, 185)" stroke-width="2" opacity="0.7"/><path aria-label="total_spent: 65k; total_items: 13; binned_age: 25; first_name: Addison; age: 29; city: San Francisco" role="graphics-symbol" aria-roledescription="circle" transform="translate(422.43610548762956,188.57142857142856)" d="M5.477,0A5.477,5.477,0,1,1,-5.477,0A5.477,5.477,0,1,1,5.477,0" fill="rgb(200, 189, 185)" stroke-width="2" opacity="0.7"/><path aria-label="total_spent: 3.6k; total_items: 17; binned_age: 30; first_name: Penelope; age: 33; city: Los Angeles" role="graphics-symbol" aria-roledescription="circle" transform="translate(233.4442893698404,154.28571428571428)" d="M5.477,0A5.477,5.477,0,1,1,-5.477,0A5.477,5.477,0,1,1,5.477,0" fill="rgb(196, 162, 147)" stroke-width="2" opacity="0.7"/><path aria-label="total_spent: 450; total_items: 14; binned_age: 35; first_name: Ariana; age: 36; city: Chicago" role="graphics-symbol" aria-roledescription="circle" transform="translate(97.97898170541366,180)" d="M5.477,0A5.477,5.477,0,1,1,-5.477,0A5.477,5.477,0,1,1,5.477,0" fill="rgb(220, 123, 67)" stroke-width="2" opacity="0.7"/><path aria-label="total_spent: 1.7k; total_items: 11; binned_age: 25; first_name: Aaliyah; age: 28; city: New York" role="graphics-symbol" aria-roledescription="circle" transform="translate(186.45384601428893,205.71428571428572)" d="M5.477,0A5.477,5.477,0,1,1,-5.477,0A5.477,5.477,0,1,1,5.477,0" fill="rgb(200, 189, 185)" stroke-width="2" opacity="0.7"/><path aria-label="total_spent: 130k; total_items: 13; binned_age: 35; first_name: Xavier; age: 37; city: Jacksonville" role="graphics-symbol" aria-roledescription="circle" transform="translate(466.1730146759945,188.57142857142856)" d="M5.477,0A5.477,5.477,0,1,1,-5.477,0A5.477,5.477,0,1,1,5.477,0" fill="rgb(220, 123, 67)" stroke-width="2" opacity="0.7"/><path aria-label="total_spent: 200; total_items: 7; binned_age: 25; first_name: Brandon; age: 26; city: Dallas" role="graphics-symbol" aria-roledescription="circle" transform="translate(45.14798460662601,240)" d="M5.477,0A5.477,5.477,0,1,1,-5.477,0A5.477,5.477,0,1,1,5.477,0" fill="rgb(200, 189, 185)" stroke-width="2" opacity="0.7"/><path aria-label="total_spent: 900; total_items: 20; binned_age: 25; first_name: Natalie; age: 28; city: Washington" role="graphics-symbol" aria-roledescription="circle" transform="translate(143.12913777237935,128.57142857142858)" d="M5.477,0A5.477,5.477,0,1,1,-5.477,0A5.477,5.477,0,1,1,5.477,0" fill="rgb(200, 189, 185)" stroke-width="2" opacity="0.7"/><path aria-label="total_spent: 98k; total_items: 18; binned_age: 35; first_name: Zachary; age: 36; city: Dallas" role="graphics-symbol" aria-roledescription="circle" transform="translate(448.8166767312432,145.71428571428572)" d="M5.477,0A5.477,5.477,0,1,1,-5.477,0A5.477,5.477,0,1,1,5.477,0" fill="rgb(220, 123, 67)" stroke-width="2" opacity="0.7"/><path aria-label="total_spent: 1.2k; total_items: 22; binned_age: 30; first_name: Tristan; age: 30; city: San Diego" role="graphics-symbol" aria-roledescription="circle" transform="translate(161.87501539854216,111.42857142857143)" d="M5.477,0A5.477,5.477,0,1,1,-5.477,0A5.477,5.477,0,1,1,5.477,0" fill="rgb(196, 162, 147)" stroke-width="2" opacity="0.7"/><path aria-label="total_spent: 65k; total_items: 13; binned_age: 40; first_name: Brayden; age: 45; city: Austin" role="graphics-symbol" aria-roledescription="circle" transform="translate(422.3664285251919,188.57142857142856)" d="M5.477,0A5.477,5.477,0,1,1,-5.477,0A5.477,5.477,0,1,1,5.477,0" fill="rgb(224, 80, 21)" stroke-width="2" opacity="0.7"/><path aria-label="total_spent: 900; total_items: 9; binned_age: 35; first_name: Caleb; age: 36; city: Philadelphia" role="graphics-symbol" aria-roledescription="circle" transform="translate(143.13275719468135,222.85714285714286)" d="M5.477,0A5.477,5.477,0,1,1,-5.477,0A5.477,5.477,0,1,1,5.477,0" fill="rgb(220, 123, 67)" stroke-width="2" opacity="0.7"/><path aria-label="total_spent: 760; total_items: 17; binned_age: 30; first_name: Nova; age: 31; city: Los Angeles" role="graphics-symbol" aria-roledescription="circle" transform="translate(132.11432394385162,154.28571428571428)" d="M5.477,0A5.477,5.477,0,1,1,-5.477,0A5.477,5.477,0,1,1,5.477,0" fill="rgb(196, 162, 147)" stroke-width="2" opacity="0.7"/></g><g class="mark-text role-mark layer_1_marks" role="graphics-object" aria-roledescription="text mark container"><text aria-label="total_spent: 1.6k; total_items: 10; first_name: Olivia; age: 22; city: Fort Worth" role="graphics-symbol" aria-roledescription="text mark" text-anchor="middle" transform="translate(180.61596161119542,207.28571428571428)" font-family="sans-serif" font-size="11px" fill="black">Olivia</text><text aria-label="total_spent: 12k; total_items: 19; first_name: Liam; age: 29; city: Denver" role="graphics-symbol" aria-roledescription="text mark" text-anchor="middle" transform="translate(309.6682491123349,130.14285714285717)" font-family="sans-serif" font-size="11px" fill="black">Liam</text><text aria-label="total_spent: 2.8k; total_items: 21; first_name: William; age: 32; city: San Jose" role="graphics-symbol" aria-roledescription="text mark" text-anchor="middle" transform="translate(217.0727740636528,113)" font-family="sans-serif" font-size="11px" fill="black">William</text><text aria-label="total_spent: 270; total_items: 13; first_name: Jackson; age: 34; city: New York" role="graphics-symbol" aria-roledescription="text mark" text-anchor="middle" transform="translate(64.6973259803287,181.57142857142856)" font-family="sans-serif" font-size="11px" fill="black">Jackson</text><text aria-label="total_spent: 16k; total_items: 28; first_name: Chloe; age: 39; city: Dallas" role="graphics-symbol" aria-roledescription="text mark" text-anchor="middle" transform="translate(330.12712346153506,52.999999999999986)" font-family="sans-serif" font-size="11px" fill="black">Chloe</text><text aria-label="total_spent: 270k; total_items: 33; first_name: Carter; age: 31; city: Denver" role="graphics-symbol" aria-roledescription="text mark" text-anchor="middle" transform="translate(515.5792774021542,10.14285714285715)" font-family="sans-serif" font-size="11px" fill="black">Carter</text><text aria-label="total_spent: 600; total_items: 13; first_name: Evan; age: 32; city: San Antonio" role="graphics-symbol" aria-roledescription="text mark" text-anchor="middle" transform="translate(116.72160181229387,181.57142857142856)" font-family="sans-serif" font-size="11px" fill="black">Evan</text><text aria-label="total_spent: 240; total_items: 4; first_name: Avery; age: 28; city: San Diego" role="graphics-symbol" aria-roledescription="text mark" text-anchor="middle" transform="translate(57.02625734950946,258.7142857142857)" font-family="sans-serif" font-size="11px" fill="black">Avery</text><text aria-label="total_spent: 700; total_items: 13; first_name: Ethan; age: 33; city: Dallas" role="graphics-symbol" aria-roledescription="text mark" text-anchor="middle" transform="translate(126.76284471348328,181.57142857142856)" font-family="sans-serif" font-size="11px" fill="black">Ethan</text><text aria-label="total_spent: 450; total_items: 8; first_name: Aria; age: 27; city: San Diego" role="graphics-symbol" aria-roledescription="text mark" text-anchor="middle" transform="translate(97.97753397671121,224.42857142857144)" font-family="sans-serif" font-size="11px" fill="black">Aria</text><text aria-label="total_spent: 12k; total_items: 7; first_name: Gabriel; age: 34; city: San Jose" role="graphics-symbol" aria-roledescription="text mark" text-anchor="middle" transform="translate(311.87702404650946,233)" font-family="sans-serif" font-size="11px" fill="black">Gabriel</text><text aria-label="total_spent: 44k; total_items: 16; first_name: Austin; age: 29; city: Los Angeles" role="graphics-symbol" aria-roledescription="text mark" text-anchor="middle" transform="translate(396.8721646681928,155.8571428571429)" font-family="sans-serif" font-size="11px" fill="black">Austin</text><text aria-label="total_spent: 150k; total_items: 34; first_name: Nora; age: 26; city: San Jose" role="graphics-symbol" aria-roledescription="text mark" text-anchor="middle" transform="translate(477.447680932226,1.5714285714285747)" font-family="sans-serif" font-size="11px" fill="black">Nora</text><text aria-label="total_spent: 3.2k; total_items: 22; first_name: Scarlett; age: 27; city: New York" role="graphics-symbol" aria-roledescription="text mark" text-anchor="middle" transform="translate(226.5795398085854,104.42857142857143)" font-family="sans-serif" font-size="11px" fill="black">Scarlett</text><text aria-label="total_spent: 3.6k; total_items: 3; first_name: Julian; age: 34; city: Fort Worth" role="graphics-symbol" aria-roledescription="text mark" text-anchor="middle" transform="translate(233.44501320201957,267.2857142857143)" font-family="sans-serif" font-size="11px" fill="black">Julian</text><text aria-label="total_spent: 330; total_items: 18; first_name: Ruby; age: 28; city: Dallas" role="graphics-symbol" aria-roledescription="text mark" text-anchor="middle" transform="translate(77.77116851499551,138.71428571428572)" font-family="sans-serif" font-size="11px" fill="black">Ruby</text><text aria-label="total_spent: 17k; total_items: 13; first_name: James; age: 45; city: Washington" role="graphics-symbol" aria-roledescription="text mark" text-anchor="middle" transform="translate(333.60187167660087,181.57142857142856)" font-family="sans-serif" font-size="11px" fill="black">James</text><text aria-label="total_spent: 400; total_items: 2; first_name: Benjamin; age: 30; city: Philadelphia" role="graphics-symbol" aria-roledescription="text mark" text-anchor="middle" transform="translate(90.30737007452933,275.85714285714283)" font-family="sans-serif" font-size="11px" fill="black">Benjamin</text><text aria-label="total_spent: 7.3k; total_items: 20; first_name: Nora; age: 24; city: Charlotte" role="graphics-symbol" aria-roledescription="text mark" text-anchor="middle" transform="translate(279.2294447701958,121.57142857142858)" font-family="sans-serif" font-size="11px" fill="black">Nora</text><text aria-label="total_spent: 4.5k; total_items: 20; first_name: Aria; age: 27; city: Phoenix" role="graphics-symbol" aria-roledescription="text mark" text-anchor="middle" transform="translate(247.98086370462875,121.57142857142858)" font-family="sans-serif" font-size="11px" fill="black">Aria</text><text aria-label="total_spent: 4.7k; total_items: 13; first_name: Grayson; age: 30; city: San Francisco" role="graphics-symbol" aria-roledescription="text mark" text-anchor="middle" transform="translate(251.36551432470606,181.57142857142856)" font-family="sans-serif" font-size="11px" fill="black">Grayson</text><text aria-label="total_spent: 7.5k; total_items: 20; first_name: Henry; age: 44; city: Philadelphia" role="graphics-symbol" aria-roledescription="text mark" text-anchor="middle" transform="translate(281.2587552128254,121.57142857142858)" font-family="sans-serif" font-size="11px" fill="black">Henry</text><text aria-label="total_spent: 35k; total_items: 14; first_name: Stella; age: 39; city: San Diego" role="graphics-symbol" aria-roledescription="text mark" text-anchor="middle" transform="translate(381.5169092588057,173)" font-family="sans-serif" font-size="11px" fill="black">Stella</text><text aria-label="total_spent: 29k; total_items: 8; first_name: Claire; age: 29; city: San Jose" role="graphics-symbol" aria-roledescription="text mark" text-anchor="middle" transform="translate(370.4731257343228,224.42857142857144)" font-family="sans-serif" font-size="11px" fill="black">Claire</text><text aria-label="total_spent: 65k; total_items: 13; first_name: Addison; age: 29; city: San Francisco" role="graphics-symbol" aria-roledescription="text mark" text-anchor="middle" transform="translate(422.43610548762956,181.57142857142856)" font-family="sans-serif" font-size="11px" fill="black">Addison</text><text aria-label="total_spent: 3.6k; total_items: 17; first_name: Penelope; age: 33; city: Los Angeles" role="graphics-symbol" aria-roledescription="text mark" text-anchor="middle" transform="translate(233.4442893698404,147.28571428571428)" font-family="sans-serif" font-size="11px" fill="black">Penelope</text><text aria-label="total_spent: 450; total_items: 14; first_name: Ariana; age: 36; city: Chicago" role="graphics-symbol" aria-roledescription="text mark" text-anchor="middle" transform="translate(97.97898170541366,173)" font-family="sans-serif" font-size="11px" fill="black">Ariana</text><text aria-label="total_spent: 1.7k; total_items: 11; first_name: Aaliyah; age: 28; city: New York" role="graphics-symbol" aria-roledescription="text mark" text-anchor="middle" transform="translate(186.45384601428893,198.71428571428572)" font-family="sans-serif" font-size="11px" fill="black">Aaliyah</text><text aria-label="total_spent: 130k; total_items: 13; first_name: Xavier; age: 37; city: Jacksonville" role="graphics-symbol" aria-roledescription="text mark" text-anchor="middle" transform="translate(466.1730146759945,181.57142857142856)" font-family="sans-serif" font-size="11px" fill="black">Xavier</text><text aria-label="total_spent: 200; total_items: 7; first_name: Brandon; age: 26; city: Dallas" role="graphics-symbol" aria-roledescription="text mark" text-anchor="middle" transform="translate(45.14798460662601,233)" font-family="sans-serif" font-size="11px" fill="black">Brandon</text><text aria-label="total_spent: 900; total_items: 20; first_name: Natalie; age: 28; city: Washington" role="graphics-symbol" aria-roledescription="text mark" text-anchor="middle" transform="translate(143.12913777237935,121.57142857142858)" font-family="sans-serif" font-size="11px" fill="black">Natalie</text><text aria-label="total_spent: 98k; total_items: 18; first_name: Zachary; age: 36; city: Dallas" role="graphics-symbol" aria-roledescription="text mark" text-anchor="middle" transform="translate(448.8166767312432,138.71428571428572)" font-family="sans-serif" font-size="11px" fill="black">Zachary</text><text aria-label="total_spent: 1.2k; total_items: 22; first_name: Tristan; age: 30; city: San Diego" role="graphics-symbol" aria-roledescription="text mark" text-anchor="middle" transform="translate(161.87501539854216,104.42857142857143)" font-family="sans-serif" font-size="11px" fill="black">Tristan</text><text aria-label="total_spent: 65k; total_items: 13; first_name: Brayden; age: 45; city: Austin" role="graphics-symbol" aria-roledescription="text mark" text-anchor="middle" transform="translate(422.3664285251919,181.57142857142856)" font-family="sans-serif" font-size="11px" fill="black">Brayden</text><text aria-label="total_spent: 900; total_items: 9; first_name: Caleb; age: 36; city: Philadelphia" role="graphics-symbol" aria-roledescription="text mark" text-anchor="middle" transform="translate(143.13275719468135,215.85714285714286)" font-family="sans-serif" font-size="11px" fill="black">Caleb</text><text aria-label="total_spent: 760; total_items: 17; first_name: Nova; age: 31; city: Los Angeles" role="graphics-symbol" aria-roledescription="text mark" text-anchor="middle" transform="translate(132.11432394385162,147.28571428571428)" font-family="sans-serif" font-size="11px" fill="black">Nova</text></g><g class="mark-group role-legend" role="graphics-symbol" aria-roledescription="legend" aria-label="Symbol legend titled 'binned_age' for fill color with 5 values: 20, 25, 30, 35, 40"><g transform="translate(618,0)"><path class="background" aria-hidden="true" d="M0,0h62v79h-62Z" pointer-events="none"/><g><g class="mark-group role-legend-entry"><g transform="translate(0,16)"><path class="background" aria-hidden="true" d="M0,0h0v0h0Z" pointer-events="none"/><g><g class="mark-group role-scope" role="graphics-object" aria-roledescription="group mark container"><g transform="translate(0,0)"><path class="background" aria-hidden="true" d="M0,0h27.123046875v11h-27.123046875Z" pointer-events="none" opacity="1"/><g><g class="mark-symbol role-legend-symbol" pointer-events="none"><path transform="translate(6,6)" d="M5,0A5,5,0,1,1,-5,0A5,5,0,1,1,5,0" fill="rgb(219, 211, 208)" stroke-width="1.5" opacity="0.7"/></g><g class="mark-text role-legend-label" pointer-events="none"><text text-anchor="start" transform="translate(16,9)" font-family="sans-serif" font-size="10px" fill="#000" opacity="1">20</text></g></g><path class="foreground" aria-hidden="true" d="" pointer-events="none" display="none"/></g><g transform="translate(0,13)"><path class="background" aria-hidden="true" d="M0,0h27.123046875v11h-27.123046875Z" pointer-events="none" opacity="1"/><g><g class="mark-symbol role-legend-symbol" pointer-events="none"><path transform="translate(6,6)" d="M5,0A5,5,0,1,1,-5,0A5,5,0,1,1,5,0" fill="rgb(200, 189, 185)" stroke-width="1.5" opacity="0.7"/></g><g class="mark-text role-legend-label" pointer-events="none"><text text-anchor="start" transform="translate(16,9)" font-family="sans-serif" font-size="10px" fill="#000" opacity="1">25</text></g></g><path class="foreground" aria-hidden="true" d="" pointer-events="none" display="none"/></g><g transform="translate(0,26)"><path class="background" aria-hidden="true" d="M0,0h27.123046875v11h-27.123046875Z" pointer-events="none" opacity="1"/><g><g class="mark-symbol role-legend-symbol" pointer-events="none"><path transform="translate(6,6)" d="M5,0A5,5,0,1,1,-5,0A5,5,0,1,1,5,0" fill="rgb(196, 162, 147)" stroke-width="1.5" opacity="0.7"/></g><g class="mark-text role-legend-label" pointer-events="none"><text text-anchor="start" transform="translate(16,9)" font-family="sans-serif" font-size="10px" fill="#000" opacity="1">30</text></g></g><path class="foreground" aria-hidden="true" d="" pointer-events="none" display="none"/></g><g transform="translate(0,39)"><path class="background" aria-hidden="true" d="M0,0h27.123046875v11h-27.123046875Z" pointer-events="none" opacity="1"/><g><g class="mark-symbol role-legend-symbol" pointer-events="none"><path transform="translate(6,6)" d="M5,0A5,5,0,1,1,-5,0A5,5,0,1,1,5,0" fill="rgb(220, 123, 67)" stroke-width="1.5" opacity="0.7"/></g><g class="mark-text role-legend-label" pointer-events="none"><text text-anchor="start" transform="translate(16,9)" font-family="sans-serif" font-size="10px" fill="#000" opacity="1">35</text></g></g><path class="foreground" aria-hidden="true" d="" pointer-events="none" display="none"/></g><g transform="translate(0,52)"><path class="background" aria-hidden="true" d="M0,0h27.123046875v11h-27.123046875Z" pointer-events="none" opacity="1"/><g><g class="mark-symbol role-legend-symbol" pointer-events="none"><path transform="translate(6,6)" d="M5,0A5,5,0,1,1,-5,0A5,5,0,1,1,5,0" fill="rgb(224, 80, 21)" stroke-width="1.5" opacity="0.7"/></g><g class="mark-text role-legend-label" pointer-events="none"><text text-anchor="start" transform="translate(16,9)" font-family="sans-serif" font-size="10px" fill="#000" opacity="1">40</text></g></g><path class="foreground" aria-hidden="true" d="" pointer-events="none" display="none"/></g></g></g><path class="foreground" aria-hidden="true" d="" pointer-events="none" display="none"/></g></g><g class="mark-text role-legend-title" pointer-events="none"><text text-anchor="start" transform="translate(0,9)" font-family="sans-serif" font-size="11px" font-weight="bold" fill="#000" opacity="1">binned_age</text></g></g><path class="foreground" aria-hidden="true" d="" pointer-events="none" display="none"/></g></g><g class="mark-group role-title"><g transform="translate(300,-24.428571428571423)"><path class="background" aria-hidden="true" d="M0,0h0v0h0Z" pointer-events="none"/><g><g class="mark-text role-title-text" role="graphics-symbol" aria-roledescription="title" aria-label="Title text 'Total Spending and Items Bought by Age Group'" pointer-events="none"><text text-anchor="middle" transform="translate(0,10)" font-family="sans-serif" font-size="13px" font-weight="bold" fill="#000" opacity="1">Total Spending and Items Bought by Age Group</text></g></g><path class="foreground" aria-hidden="true" d="" pointer-events="none" display="none"/></g></g></g><path class="foreground" aria-hidden="true" d="" display="none"/></g></g></g></svg>